<?xml version="1.0" encoding="UTF-8"?>
<svg version="1.1" xmlns="http://www.w3.org/2000/svg" width="350" height="350">
<path d="M0 0 C15.08076846 12.07902315 25.39599499 27.85552539 29 47 C29.226875 48.134375 29.45375 49.26875 29.6875 50.4375 C31.62285781 72.50057902 26.41008032 93.18123804 12.34863281 110.42919922 C-0.71506401 125.64495327 -19.05985718 135.11836136 -39 137 C-59.60655673 138.46628612 -78.51075482 132.15873635 -95 120 C-96.70939583 118.37718718 -98.38209683 116.71404343 -100 115 C-100.57363281 114.4121875 -101.14726563 113.824375 -101.73828125 113.21875 C-115.68578935 97.99070145 -122.6623964 78.8222784 -122.25390625 58.234375 C-121.43728093 47.83182479 -119.23336046 37.55779321 -115 28 C-114.42185547 26.68322266 -114.42185547 26.68322266 -113.83203125 25.33984375 C-105.35145222 8.05537916 -89.32985176 -3.57573396 -72 -11 C-47.54032166 -19.34686523 -20.80699905 -15.43088896 0 0 Z M-90.875 27.25 C-93.38388106 33.38282036 -93.18201116 40.05802592 -93.23828125 46.58984375 C-93.246353 47.49319962 -93.25442474 48.39655548 -93.26274109 49.32728577 C-93.27650693 51.22915773 -93.28726224 53.13105362 -93.29516602 55.03295898 C-93.30671176 56.96760354 -93.3272043 58.90221561 -93.35668945 60.83666992 C-93.39949997 63.65044519 -93.41554921 66.46328272 -93.42578125 69.27734375 C-93.44328934 70.13279282 -93.46079742 70.98824188 -93.47883606 71.86961365 C-93.45795404 77.70597567 -92.43068689 82.19475586 -89 87 C-84.69567559 91.00843891 -79.79982112 90.28093182 -74.265625 90.08984375 C-72.30862205 90.06822793 -70.35158619 90.04944362 -68.39453125 90.03320312 C-65.33890795 89.99449045 -62.28794003 89.93882363 -59.23388672 89.83227539 C-43.15881478 89.31605515 -34.055623 92.35292703 -22 103 C-20.23098565 104.43973789 -18.46068915 105.87790696 -16.6875 107.3125 C-16.05199219 107.86550781 -15.41648437 108.41851562 -14.76171875 108.98828125 C-12.7325736 110.42433961 -12.7325736 110.42433961 -9 109 C-11.31 103.06 -13.62 97.12 -16 91 C-11.545 90.01 -11.545 90.01 -7 89 C-3.323464 87.48143078 -2.28176827 86.52504173 -0.38989258 82.99975586 C1.46596119 78.43657173 1.414267 74.05952794 1.36328125 69.19140625 C1.36377975 68.26585434 1.36427826 67.34030243 1.36479187 66.38670349 C1.36246117 64.43771203 1.35279223 62.48871699 1.33618164 60.53979492 C1.31260007 57.57508077 1.3156275 54.61126853 1.32226562 51.64648438 C1.31668739 49.74478636 1.30957659 47.8430921 1.30078125 45.94140625 C1.30169266 45.0640834 1.30260406 44.18676056 1.30354309 43.28285217 C1.23329378 37.10918861 1.03187404 30.75754334 -2.75 25.625 C-7.5124512 22.18545191 -12.34125395 21.74692181 -18.08764648 21.7253418 C-19.11084991 21.7176754 -19.11084991 21.7176754 -20.15472412 21.70985413 C-22.39360503 21.69603533 -24.63217545 21.69690893 -26.87109375 21.69921875 C-28.43758761 21.69532772 -30.00408043 21.69099222 -31.5705719 21.68623352 C-34.84794541 21.67878801 -38.12521117 21.67905054 -41.40258789 21.68432617 C-45.58996441 21.69012023 -49.77689852 21.6731835 -53.96420193 21.6499815 C-57.19768323 21.63520746 -60.43105886 21.6343774 -63.66456795 21.63749123 C-65.20784443 21.63697991 -66.75112712 21.63177797 -68.29437065 21.62167931 C-70.45752108 21.60925958 -72.61982086 21.61613849 -74.78295898 21.62768555 C-76.01062485 21.62705612 -77.23829071 21.6264267 -78.50315857 21.6257782 C-83.41694877 22.15163774 -87.60699365 23.32839239 -90.875 27.25 Z " fill="#662C91" transform="translate(221,114)"/>
<path d="M0 0 C0.99 0 1.98 0 3 0 C14.57544911 15.38917016 18.83196345 35.99316611 16.53125 54.83984375 C13.37180814 75.6232452 3.76611128 93.04231991 -13 106 C-30.14574344 118.2747936 -50.05644414 123.50631671 -70.95336914 120.17626953 C-80.03497942 118.56209807 -89.25550319 116.16299788 -97 111 C-97 110.34 -97 109.68 -97 109 C-93.82670098 110.00616798 -90.78883773 111.09342791 -87.7421875 112.44140625 C-75.59959663 117.67508852 -63.04570972 118.69801598 -50 119 C-50.79117904 117.00016466 -50.79117904 117.00016466 -52 115 C-52.99 114.67 -53.98 114.34 -55 114 C-55 113.34 -55 112.68 -55 112 C-55.66 112 -56.32 112 -57 112 C-57.0825 111.38125 -57.165 110.7625 -57.25 110.125 C-57.77876656 107.87900069 -57.77876656 107.87900069 -59.6875 107.0625 C-60.450625 106.711875 -61.21375 106.36125 -62 106 C-68.74311927 100.63302752 -68.74311927 100.63302752 -71 98 C-71 97.34 -71 96.68 -71 96 C-71.66 96 -72.32 96 -73 96 C-76 92.53846154 -76 92.53846154 -76 90 C-76.556875 89.95875 -77.11375 89.9175 -77.6875 89.875 C-80.56910817 88.78466177 -81.83929455 87.01859214 -83.69921875 84.62890625 C-85.61367173 82.23152819 -87.80296324 80.13600797 -90 78 C-90.495 77.505 -90.495 77.505 -91 77 C-92.68183948 76.76712992 -94.3712416 76.58735834 -96.0625 76.4375 C-97.44115234 76.31181641 -97.44115234 76.31181641 -98.84765625 76.18359375 C-99.55792969 76.12300781 -100.26820313 76.06242187 -101 76 C-101 75.01 -101 74.02 -101 73 C-101.6245105 72.75164902 -102.249021 72.50329803 -102.89245605 72.24742126 C-106.11016293 70.34291247 -106.4217264 68.05653277 -107.44165039 64.5930481 C-108.39263485 60.17655278 -108.46777931 55.84420044 -108.46875 51.33984375 C-108.47636353 50.3505336 -108.48397705 49.36122345 -108.49182129 48.3419342 C-108.50256291 46.26370757 -108.50549976 44.18542721 -108.50097656 42.10717773 C-108.50000147 38.94227905 -108.54175014 35.77978575 -108.5859375 32.61523438 C-108.59114351 30.58594251 -108.59383271 28.55664229 -108.59375 26.52734375 C-108.61014526 25.59067368 -108.62654053 24.6540036 -108.64343262 23.68894958 C-108.56530604 16.20575067 -106.28668068 11.28668068 -101 6 C-100.01 6 -99.02 6 -98 6 C-98 5.34 -98 4.68 -98 4 C-87.93376677 3.90723529 -77.86763558 3.83620214 -67.80106163 3.79275131 C-63.12649795 3.77189484 -58.45222716 3.74361276 -53.77783203 3.69824219 C-49.26501215 3.65471504 -44.75247363 3.6308483 -40.23945999 3.62049103 C-38.51948239 3.61311196 -36.79951983 3.59870221 -35.07966232 3.57707977 C-32.66654179 3.54795371 -30.2545772 3.54404772 -27.84130859 3.54589844 C-27.13352264 3.53151733 -26.42573669 3.51713623 -25.69650269 3.50231934 C-20.69575762 3.54369666 -17.83706811 4.83973925 -14 8 C-13.125 10.25 -13.125 10.25 -13 12 C-13.66 12 -14.32 12 -15 12 C-15 11.34 -15 10.68 -15 10 C-23.29962489 6.48656568 -31.3071555 6.57823325 -40.1640625 6.63671875 C-41.72626749 6.63723842 -43.28847314 6.6367166 -44.85067749 6.63520813 C-48.11018757 6.63529741 -51.36944802 6.64563743 -54.62890625 6.66381836 C-58.79258955 6.68654177 -62.95591013 6.68703795 -67.11963844 6.68030071 C-70.34025255 6.67694946 -73.56078495 6.68361192 -76.78138351 6.69342995 C-78.31627347 6.69725947 -79.85117254 6.69843956 -81.38606644 6.6968441 C-83.53440746 6.69647052 -85.68229412 6.70917308 -87.83056641 6.7253418 C-89.04918365 6.72994919 -90.2678009 6.73455658 -91.52334595 6.73930359 C-95.27413128 7.0205557 -98.45965029 7.73683879 -102 9 C-105.81425589 15.06813436 -105.17817293 23.61248516 -105.23828125 30.58984375 C-105.246353 31.49319962 -105.25442474 32.39655548 -105.26274109 33.32728577 C-105.27650693 35.22915773 -105.28726224 37.13105362 -105.29516602 39.03295898 C-105.30671176 40.96760354 -105.3272043 42.90221561 -105.35668945 44.83666992 C-105.39949997 47.65044519 -105.41554921 50.46328272 -105.42578125 53.27734375 C-105.44328934 54.13279282 -105.46079742 54.98824188 -105.47883606 55.86961365 C-105.45856444 61.53537505 -104.5644071 66.42997634 -101 71 C-98.15520589 72.84422561 -96.03943744 73.232201 -92.68481445 73.12841797 C-91.8390535 73.10955536 -90.99329254 73.09069275 -90.12190247 73.07125854 C-89.21155746 73.0451651 -88.30121246 73.01907166 -87.36328125 72.9921875 C-85.4030218 72.9734788 -83.44272979 72.95796294 -81.48242188 72.9453125 C-78.41566756 72.91902812 -75.35414067 72.87634487 -72.28881836 72.77734375 C-56.19335979 72.29433562 -47.07802788 75.36637482 -35 86 C-33.21151936 87.441462 -31.42077504 88.88013563 -29.625 90.3125 C-28.97789062 90.86550781 -28.33078125 91.41851562 -27.6640625 91.98828125 C-27.11492187 92.32214844 -26.56578125 92.65601563 -26 93 C-25.01 92.67 -24.02 92.34 -23 92 C-25.31 86.39 -27.62 80.78 -30 75 C-28.09634482 73.09634482 -24.89753121 73.10381192 -22.32421875 72.59765625 C-18.96154698 71.74166288 -18.96154698 71.74166288 -16 70 C-12.55314628 63.84047136 -12.60529753 58.3274018 -12.70703125 51.37890625 C-12.71127609 50.27900864 -12.71552094 49.17911102 -12.71989441 48.04588318 C-12.73661598 44.55116755 -12.77425705 41.05703979 -12.8125 37.5625 C-12.82755522 35.18555523 -12.84124216 32.80860138 -12.85351562 30.43164062 C-12.88649815 24.62089497 -12.9366327 18.8104895 -13 13 C-12.34 13 -11.68 13 -11 13 C-10.505 17.455 -10.505 17.455 -10 22 C-9.34 22 -8.68 22 -8 22 C-8 22.66 -8 23.32 -8 24 C-7.34 24 -6.68 24 -6 24 C-3.875 25.875 -3.875 25.875 -2 28 C-2 28.66 -2 29.32 -2 30 C-1.34 30 -0.68 30 0 30 C0 30.66 0 31.32 0 32 C0.66 32 1.32 32 2 32 C2 32.66 2 33.32 2 34 C2.66 34 3.32 34 4 34 C4 34.66 4 35.32 4 36 C4.66 36 5.32 36 6 36 C6 36.66 6 37.32 6 38 C6.61875 38.28875 7.2375 38.5775 7.875 38.875 C10 40 10 40 12 42 C12 42.99 12 43.98 12 45 C12.66 45 13.32 45 14 45 C14.34436669 38.22745501 13.34985713 32.48069638 11.65625 25.91796875 C11 23 11 23 11 19 C10.34 19 9.68 19 9 19 C8.71125 18.0925 8.4225 17.185 8.125 16.25 C7.12804594 13.1223223 7.12804594 13.1223223 5.875 10.8125 C5 9 5 9 5 6 C4.34 6 3.68 6 3 6 C2.01 4.02 1.02 2.04 0 0 Z " fill="#511B72" transform="translate(234,130)"/>
<path d="M0 0 C2.26202424 1.83848765 4.45585087 3.74057852 6.625 5.6875 C7.40713867 6.38286865 7.40713867 6.38286865 8.20507812 7.09228516 C10.83803532 9.54107633 12.63906018 11.33044521 13 15 C5.7340631 9.75338055 5.7340631 9.75338055 2.625 6.5625 C-2.4704412 1.58837883 -8.28451858 -2.56563798 -15 -5 C-15 -5.66 -15 -6.32 -15 -7 C-17.97 -7.33 -20.94 -7.66 -24 -8 C-24 -8.66 -24 -9.32 -24 -10 C-40.49248343 -13.62187871 -59.75711085 -14.11347459 -75 -6 C-76.02480469 -5.51660156 -77.04960937 -5.03320312 -78.10546875 -4.53515625 C-79.12253906 -4.04917969 -80.13960937 -3.56320313 -81.1875 -3.0625 C-82.21230469 -2.57910156 -83.23710937 -2.09570312 -84.29296875 -1.59765625 C-87.0652276 0.03849652 -88.18401549 1.41170024 -90 4 C-91.75390625 5.16015625 -91.75390625 5.16015625 -93.5625 6.0625 C-97.15869657 7.74786099 -97.15869657 7.74786099 -99 11 C-99.66 11 -100.32 11 -101 11 C-101.3403125 11.804375 -101.3403125 11.804375 -101.6875 12.625 C-103 15 -103 15 -105.25 17.4375 C-109.37244571 22.23075788 -111.5439428 28.24317229 -114 34 C-114.32226562 34.72574219 -114.64453125 35.45148438 -114.9765625 36.19921875 C-121.87255234 52.81228518 -119.64670991 72.36927905 -114 89 C-112.02163302 94.3539624 -112.02163302 94.3539624 -108 98 C-107.30007714 99.66648301 -106.6033705 101.33445644 -105.9296875 103.01171875 C-104.37868805 106.32877219 -102.20198399 109.08385904 -100 112 C-102.73903925 111.64715433 -103.8151675 111.20129019 -105.7109375 109.13671875 C-118.58053817 90.1948417 -124.92567326 69.77582124 -120.75 46.9375 C-119.45515245 40.35787671 -117.7181223 34.13679158 -115 28 C-114.42185547 26.68322266 -114.42185547 26.68322266 -113.83203125 25.33984375 C-105.35145222 8.05537916 -89.32985176 -3.57573396 -72 -11 C-47.56447465 -19.33862302 -20.77619151 -15.45265213 0 0 Z " fill="#532D69" transform="translate(221,114)"/>
<path d="M0 0 C5.00566288 -0.29445076 7.99160747 -0.11763863 12 3 C14.61429492 5.52414681 14.97469861 6.76807058 15.375 10.4375 C14.8847295 15.09506978 13.45365136 17.43867076 10.3125 20.8125 C6.89127695 22.56934427 3.7048151 22.78220664 0 22 C-3.0190434 20.24700706 -5.41511201 18.16977599 -7 15 C-7.13415472 12.3276379 -7.04318541 9.67749512 -7 7 C-5.02 6.34 -3.04 5.68 -1 5 C-0.67 3.35 -0.34 1.7 0 0 Z " fill="#521B72" transform="translate(191,153)"/>
<path d="M0 0 C4.99503071 0.4913145 6.31841769 1.88091769 9.8125 5.375 C11.43323594 8.61647188 11.37254036 11.8714917 10.8125 15.375 C8.47509344 19.31937358 6.23985172 21.5642102 1.9375 23.0625 C-1.46977559 23.71427052 -3.19964886 23.17646024 -6.0625 21.25 C-8.49287035 19.19608792 -10.33135488 17.51419876 -11.1875 14.375 C-11.50892857 9.01785714 -11.50892857 9.01785714 -10.1875 6.375 C-8.2075 6.375 -6.2275 6.375 -4.1875 6.375 C-4.208125 5.570625 -4.22875 4.76625 -4.25 3.9375 C-4.15744141 0.14259763 -3.85015021 0.45295885 0 0 Z " fill="#521C75" transform="translate(155.1875,152.625)"/>
<path d="M0 0 C0.99 0 1.98 0 3 0 C14.57544911 15.38917016 18.83196345 35.99316611 16.53125 54.83984375 C13.65170752 73.78201453 5.51295002 90.19430338 -9.1875 102.7421875 C-11 104 -11 104 -13 104 C-13 103.34 -13 102.68 -13 102 C-12.34 102 -11.68 102 -11 102 C-10.79375 101.443125 -10.5875 100.88625 -10.375 100.3125 C-8.80803757 97.67715409 -6.8460007 96.23883753 -4.45703125 94.3671875 C-2.24516336 92.29170825 -1.24059132 89.72930091 0 87 C0.99 86.505 0.99 86.505 2 86 C3.04227156 84.159331 4.01043838 82.27630195 4.9375 80.375 C5.44152344 79.35148437 5.94554687 78.32796875 6.46484375 77.2734375 C14.27040871 60.62951018 16.56321165 43.57319805 11.65625 25.671875 C11 23 11 23 11 19 C10.34 19 9.68 19 9 19 C8.71125 18.0925 8.4225 17.185 8.125 16.25 C7.12804594 13.1223223 7.12804594 13.1223223 5.875 10.8125 C5 9 5 9 5 6 C4.34 6 3.68 6 3 6 C1.515 3.03 1.515 3.03 0 0 Z " fill="#39144A" transform="translate(234,130)"/>
<path d="M0 0 C0.625 2.375 0.625 2.375 1 5 C-1.36568222 7.36568222 -1.85232226 7.25571704 -5.0625 7.265625 C-6.25746094 7.26949219 -6.25746094 7.26949219 -7.4765625 7.2734375 C-8.30929688 7.26570312 -9.14203125 7.25796875 -10 7.25 C-10.83273438 7.25773438 -11.66546875 7.26546875 -12.5234375 7.2734375 C-13.32007813 7.27085937 -14.11671875 7.26828125 -14.9375 7.265625 C-15.66839844 7.26336914 -16.39929688 7.26111328 -17.15234375 7.25878906 C-19 7 -19 7 -21 5 C-20.9375 2.5 -20.9375 2.5 -20 0 C-14.18617333 -3.81532375 -6.07528245 -2.49242357 0 0 Z " fill="#320D47" transform="translate(185,186)"/>
<path d="M0 0 C3.17215539 1.00580537 6.21097492 2.09309205 9.2578125 3.4375 C26.84971418 11.01530031 44.05152128 10.6724987 62 5 C63.64207211 4.56874874 65.28725445 4.14883343 66.9375 3.75 C67.948125 3.5025 68.95875 3.255 70 3 C64.58423207 9.27019733 55.20030241 11.23330813 47.125 11.90625 C46.42375 11.9371875 45.7225 11.968125 45 12 C43.6078125 12.07734375 43.6078125 12.07734375 42.1875 12.15625 C28.0466386 12.57215769 11.96792062 9.97861375 0 2 C0 1.34 0 0.68 0 0 Z " fill="#45245C" transform="translate(137,239)"/>
<path d="M0 0 C4.99503071 0.4913145 6.31841769 1.88091769 9.8125 5.375 C11.43323594 8.61647188 11.37254036 11.8714917 10.8125 15.375 C8.47509344 19.31937358 6.23985172 21.5642102 1.9375 23.0625 C-1.46977559 23.71427052 -3.19964886 23.17646024 -6.0625 21.25 C-8.49287035 19.19608792 -10.33135488 17.51419876 -11.1875 14.375 C-11.50892857 9.01785714 -11.50892857 9.01785714 -10.1875 6.375 C-7.5475 6.375 -4.9075 6.375 -2.1875 6.375 C-2.8475 7.695 -3.5075 9.015 -4.1875 10.375 C-5.8375 10.045 -7.4875 9.715 -9.1875 9.375 C-8.11265413 14.23503056 -8.11265413 14.23503056 -5.5 18.375 C-2.11021798 19.84085169 0.27684869 19.2106994 3.8125 18.375 C7.20662068 16.59187403 7.20662068 16.59187403 7.8125 12.5625 C8.14532844 8.97317374 7.925723 8.52704232 5.625 5.4375 C3.16912901 3.63652794 1.78571792 2.70535755 -1.1875 2.375 C-1.5175 3.365 -1.8475 4.355 -2.1875 5.375 C-2.8475 4.055 -3.5075 2.735 -4.1875 1.375 C-3.1875 0.375 -3.1875 0.375 0 0 Z " fill="#3A1949" transform="translate(155.1875,152.625)"/>
<path d="M0 0 C5.00566288 -0.29445076 7.99160747 -0.11763863 12 3 C14.61429492 5.52414681 14.97469861 6.76807058 15.375 10.4375 C14.8847295 15.09506978 13.45365136 17.43867076 10.3125 20.8125 C6.89127695 22.56934427 3.7048151 22.78220664 0 22 C-3.0190434 20.24700706 -5.41511201 18.16977599 -7 15 C-7.13415472 12.3276379 -7.04318541 9.67749512 -7 7 C-6.34 7 -5.68 7 -5 7 C-4.9175 8.2375 -4.835 9.475 -4.75 10.75 C-4.36736817 13.75259699 -4.0648122 14.90972587 -2.25 17.4375 C0.21739457 19.15096845 2.0348673 19.67054081 5 20 C5.66 18.68 6.32 17.36 7 16 C7.99 16.33 8.98 16.66 10 17 C11.4216319 13.6828589 12.39009109 10.55780196 13 7 C12.34 7 11.68 7 11 7 C10.5875 6.54625 10.175 6.0925 9.75 5.625 C7.41860535 3.46013354 5.02171964 2.87294123 2 2 C1.67 3.65 1.34 5.3 1 7 C-0.0625 5.1875 -0.0625 5.1875 -1 3 C-0.67 2.01 -0.34 1.02 0 0 Z " fill="#381647" transform="translate(191,153)"/>
<path d="M0 0 C0.66 0.99 1.32 1.98 2 3 C-1.50776784 4.60355101 -4.14354879 5.22036864 -8 5 C-7.54363464 6.396478 -7.08480512 7.7921508 -6.625 9.1875 C-6.35429687 10.01378906 -6.08359375 10.84007812 -5.8046875 11.69140625 C-5.01569296 14.08968315 -5.01569296 14.08968315 -3.75 16.625 C-2.70021184 19.94932917 -3.33867216 22.627228 -4 26 C-3.34 26.33 -2.68 26.66 -2 27 C-2.66 27.99 -3.32 28.98 -4 30 C-5.32 29.67 -6.64 29.34 -8 29 C-8 27.35 -8 25.7 -8 24 C-8.556875 23.731875 -9.11375 23.46375 -9.6875 23.1875 C-12.21225334 21.89100504 -14.63714484 20.57523677 -17 19 C-17 18.34 -17 17.68 -17 17 C-14.27925539 17.98249111 -12.15262974 18.87879403 -9.875 20.6875 C-8.946875 21.3371875 -8.946875 21.3371875 -8 22 C-7.01 21.67 -6.02 21.34 -5 21 C-7.31 15.39 -9.62 9.78 -12 4 C-10.45627868 2.45627868 -8.67572274 2.43278802 -6.5625 2 C-4.15670855 1.50571219 -2.19915754 1.09957877 0 0 Z " fill="#3A154B" transform="translate(216,201)"/>
<path d="M0 0 C0.66 0 1.32 0 2 0 C2.85830529 2.97911141 3.13087154 5.64062562 3.14526367 8.73681641 C3.15164352 9.67103424 3.15802338 10.60525208 3.16459656 11.56777954 C3.16570938 12.56892792 3.1668222 13.57007629 3.16796875 14.6015625 C3.17129715 15.63437347 3.17462555 16.66718445 3.17805481 17.73129272 C3.18311282 19.9116776 3.18546348 22.0920702 3.18530273 24.27246094 C3.18749624 27.61926861 3.20568313 30.96575034 3.22460938 34.3125 C3.22754204 36.42968637 3.22952769 38.54687431 3.23046875 40.6640625 C3.23765427 41.66925934 3.24483978 42.67445618 3.25224304 43.71011353 C3.24916641 44.63802704 3.24608978 45.56594055 3.24291992 46.52197266 C3.24434494 47.34041656 3.24576996 48.15886047 3.24723816 49.00210571 C3 51 3 51 1 53 C0.01533747 50.04601242 -0.12127836 48.14750978 -0.11352539 45.06958008 C-0.11344986 44.06876907 -0.11337433 43.06795807 -0.11329651 42.03681946 C-0.10813522 40.95861435 -0.10297394 39.88040924 -0.09765625 38.76953125 C-0.0962413 37.66397385 -0.09482635 36.55841644 -0.09336853 35.4193573 C-0.08776514 31.88371083 -0.07521204 28.34812738 -0.0625 24.8125 C-0.05748544 22.41731862 -0.05292246 20.02213625 -0.04882812 17.62695312 C-0.03779461 11.75128053 -0.02105316 5.87564477 0 0 Z " fill="#3D1454" transform="translate(221,143)"/>
<path d="M0 0 C0.99 0 1.98 0 3 0 C13.91619539 14.51271452 17.81151554 33.17671435 17 51 C16.67 51 16.34 51 16 51 C15.3531858 46.97932382 14.70772445 42.95843158 14.0625 38.9375 C13.88009766 37.80376953 13.69769531 36.67003906 13.50976562 35.50195312 C12.62862311 30.00682797 11.76017152 24.51324398 11 19 C10.34 19 9.68 19 9 19 C8.71125 18.0925 8.4225 17.185 8.125 16.25 C7.12804594 13.1223223 7.12804594 13.1223223 5.875 10.8125 C5 9 5 9 5 6 C4.34 6 3.68 6 3 6 C2.01 4.02 1.02 2.04 0 0 Z " fill="#43205C" transform="translate(234,130)"/>
<path d="M0 0 C5.61904335 -0.22459281 11.23540778 -0.38675647 16.85791016 -0.49438477 C18.76494922 -0.53929983 20.67168453 -0.60045921 22.57763672 -0.67895508 C34.10966368 -1.14156654 42.09865939 -1.0405253 51.02441406 6.75805664 C53 9 53 9 54 12 C52.88625 11.505 52.88625 11.505 51.75 11 C48.86116688 9.77217129 48.86116688 9.77217129 45 10 C41.61663396 7.74442264 41.39927488 6.63811468 40 3 C36.72684491 1.36342246 33.09377769 1.7569193 29.4921875 1.68359375 C28.65156769 1.66281265 27.81094788 1.64203156 26.94485474 1.62062073 C24.25498765 1.55514561 21.56502157 1.4962498 18.875 1.4375 C17.05337511 1.39431284 15.23176029 1.35069848 13.41015625 1.30664062 C8.94020606 1.19946632 4.47015614 1.09819315 0 1 C0 0.67 0 0.34 0 0 Z " fill="#3A114C" transform="translate(143,205)"/>
<path d="M0 0 C0.33 0 0.66 0 1 0 C1.17015625 0.67546875 1.3403125 1.3509375 1.515625 2.046875 C3.28845597 8.90060473 3.28845597 8.90060473 8 14 C10.32851952 15.16425976 11.76280184 15.15457992 14.35791016 15.20532227 C15.70908432 15.2352401 15.70908432 15.2352401 17.08755493 15.26576233 C18.54855118 15.29083107 18.54855118 15.29083107 20.0390625 15.31640625 C21.53305069 15.3475779 21.53305069 15.3475779 23.05722046 15.37937927 C26.24640854 15.44489042 29.43568058 15.50376704 32.625 15.5625 C34.78386293 15.60568373 36.9427173 15.64929797 39.1015625 15.69335938 C44.4009523 15.80057336 49.70042606 15.90233685 55 16 C55 16.33 55 16.66 55 17 C38.83 17.33 22.66 17.66 6 18 C6 17.01 6 16.02 6 15 C5.38125 14.7525 4.7625 14.505 4.125 14.25 C1.55220744 12.73659261 1.08332161 11.74699409 0 9 C-0.1953125 6.640625 -0.1953125 6.640625 -0.125 4.25 C-0.10695313 3.45078125 -0.08890625 2.6515625 -0.0703125 1.828125 C-0.04710938 1.22484375 -0.02390625 0.6215625 0 0 Z " fill="#59326D" transform="translate(127,188)"/>
<path d="M0 0 C0.66 0.33 1.32 0.66 2 1 C1.21654285 2.17219543 0.42297164 3.33763668 -0.375 4.5 C-0.81585938 5.1496875 -1.25671875 5.799375 -1.7109375 6.46875 C-2.13632813 6.9740625 -2.56171875 7.479375 -3 8 C-3.66 8 -4.32 8 -5 8 C-5.226875 8.53625 -5.45375 9.0725 -5.6875 9.625 C-7 12 -7 12 -9.3125 14.625 C-12.26882645 18.0173628 -13.96849006 21.83865722 -15.7890625 25.92578125 C-17 28 -17 28 -20 29 C-16.88210161 17.1519861 -8.42535019 8.42535019 0 0 Z " fill="#5A346D" transform="translate(125,117)"/>
<path d="M0 0 C1.06238892 -0.0009668 1.06238892 -0.0009668 2.14624023 -0.00195312 C6.60113541 0.04388235 10.85339509 0.46816019 15.25 1.1875 C15.25 1.8475 15.25 2.5075 15.25 3.1875 C14.61610352 3.18226318 13.98220703 3.17702637 13.32910156 3.17163086 C-3.24032136 2.97756002 -3.24032136 2.97756002 -19.75 4.1875 C-19.75 3.5275 -19.75 2.8675 -19.75 2.1875 C-13.1503513 0.5910407 -6.76518611 -0.00590395 0 0 Z " fill="#4A265E" transform="translate(174.75,98.8125)"/>
<path d="M0 0 C2.31 0 4.62 0 7 0 C7 0.66 7 1.32 7 2 C8.98 2.66 10.96 3.32 13 4 C12.67 4.99 12.34 5.98 12 7 C7.38 7 2.76 7 -2 7 C-1.34 5.35 -0.68 3.7 0 2 C0 1.34 0 0.68 0 0 Z " fill="#552671" transform="translate(171,184)"/>
<path d="M0 0 C1.23393458 3.70180374 0.23053718 5.08362649 -1.16796875 8.5703125 C-3.93020933 16.63657371 -4.36784083 25.54902999 -5 34 C-5.33 34 -5.66 34 -6 34 C-8.19194125 23.01388483 -5.47981275 11.49276871 -2 1 C-1.34 0.67 -0.68 0.34 0 0 Z " fill="#4B255F" transform="translate(106,145)"/>
<path d="M0 0 C0.94875 0.04125 1.8975 0.0825 2.875 0.125 C0.54285852 1.33128008 -1.62142139 2.2904738 -4.125 3.125 C-6.15351102 6.95663192 -6.62270926 10.85552871 -7.125 15.125 C-7.785 15.125 -8.445 15.125 -9.125 15.125 C-9.125 18.095 -9.125 21.065 -9.125 24.125 C-9.455 24.125 -9.785 24.125 -10.125 24.125 C-11.031118 9.78819965 -11.031118 9.78819965 -6.4140625 3.578125 C-3.35911371 0.13436455 -3.35911371 0.13436455 0 0 Z " fill="#4B2165" transform="translate(136.125,135.875)"/>
<path d="M0 0 C2.31 0.66 4.62 1.32 7 2 C7.625 4.375 7.625 4.375 8 7 C6 9 6 9 4.12060547 9.22705078 C3.37697754 9.21657715 2.63334961 9.20610352 1.8671875 9.1953125 C0.65869141 9.18564453 0.65869141 9.18564453 -0.57421875 9.17578125 C-1.41597656 9.15902344 -2.25773438 9.14226562 -3.125 9.125 C-4.39923828 9.11146484 -4.39923828 9.11146484 -5.69921875 9.09765625 C-7.79959884 9.07405647 -9.89983444 9.03818483 -12 9 C-12 8.67 -12 8.34 -12 8 C-4.08 7.505 -4.08 7.505 4 7 C4 6.01 4 5.02 4 4 C2.35 3.67 0.7 3.34 -1 3 C-0.67 2.01 -0.34 1.02 0 0 Z " fill="#3C1B4B" transform="translate(178,184)"/>
<path d="M0 0 C3.17031373 1.00522143 6.2060873 2.091154 9.25 3.4375 C13.69338738 5.39458748 18.33652687 6.67696235 23 8 C22.67 8.66 22.34 9.32 22 10 C14.02443261 8.31444194 7.12138499 5.98608496 0 2 C0 1.34 0 0.68 0 0 Z " fill="#4F2767" transform="translate(137,239)"/>
<path d="M0 0 C-5.26658618 4.24252776 -11.28830261 6.2058309 -18 7 C-18.99 6.34 -19.98 5.68 -21 5 C-17.87883314 3.96717589 -14.75255182 2.95080882 -11.625 1.9375 C-10.29082031 1.49567383 -10.29082031 1.49567383 -8.9296875 1.04492188 C-8.07890625 0.77099609 -7.228125 0.49707031 -6.3515625 0.21484375 C-5.56604004 -0.04176025 -4.78051758 -0.29836426 -3.97119141 -0.56274414 C-2 -1 -2 -1 0 0 Z " fill="#3C1950" transform="translate(207,243)"/>
<path d="M0 0 C0.7425 0.804375 1.485 1.60875 2.25 2.4375 C4.84683343 4.85727661 5.65455505 5.56832968 9 6 C10.33333333 6.33333333 11.66666667 6.66666667 13 7 C12.34 7.66 11.68 8.32 11 9 C11.99 9.66 12.98 10.32 14 11 C14 11.66 14 12.32 14 13 C7.79936578 10.69690729 3.55939835 7.81993539 -1 3 C-0.67 2.01 -0.34 1.02 0 0 Z " fill="#502768" transform="translate(122,226)"/>
<path d="M0 0 C5.81070493 2.11298361 11.67888105 4.52992173 15 10 C14.01 11.485 14.01 11.485 13 13 C11.68 12.67 10.36 12.34 9 12 C9 10.35 9 8.7 9 7 C8.443125 6.731875 7.88625 6.46375 7.3125 6.1875 C4.78774666 4.89100504 2.36285516 3.57523677 0 2 C0 1.34 0 0.68 0 0 Z " fill="#441A5B" transform="translate(199,218)"/>
<path d="M0 0 C0.99 0 1.98 0 3 0 C7.21324972 5.71463047 10.57360973 12.02653648 12 19 C11.01 19 10.02 19 9 19 C8.71125 18.0925 8.4225 17.185 8.125 16.25 C7.12804594 13.1223223 7.12804594 13.1223223 5.875 10.8125 C5 9 5 9 5 6 C4.34 6 3.68 6 3 6 C2.01 4.02 1.02 2.04 0 0 Z " fill="#4E2763" transform="translate(234,130)"/>
<path d="M0 0 C0.66 0 1.32 0 2 0 C2.0825 1.2375 2.165 2.475 2.25 3.75 C2.63099302 6.65893319 2.95955463 7.93933195 4.625 10.4375 C7.70696199 12.46510657 10.36024802 12.72001908 14 13 C13.34 13.66 12.68 14.32 12 15 C7.46548236 15 5.50858284 14.44365737 2.0625 11.4375 C-0.71079465 7.71258464 -0.38815254 4.50256945 0 0 Z " fill="#351345" transform="translate(184,160)"/>
<path d="M0 0 C0.33 0 0.66 0 1 0 C1.29445076 5.00566288 1.11763863 7.99160747 -2 12 C-4 13.875 -4 13.875 -6 15 C-6.99 14.67 -7.98 14.34 -9 14 C-8.67 12.68 -8.34 11.36 -8 10 C-6.35 9.67 -4.7 9.34 -3 9 C-2.01 6.03 -1.02 3.06 0 0 Z " fill="#3A1C4D" transform="translate(205,160)"/>
<path d="M0 0 C0.66 0 1.32 0 2 0 C2 0.66 2 1.32 2 2 C2.99 2.33 3.98 2.66 5 3 C4.34 3.66 3.68 4.32 3 5 C5.9465385 6.80066242 8.88801935 8.50163895 12 10 C11.67 10.33 11.34 10.66 11 11 C7.22546597 10.78634713 4.70045198 10.4849283 1.5625 8.3125 C-0.4218681 5.37563521 -0.31577173 3.473489 0 0 Z " fill="#4B1D6B" transform="translate(146,162)"/>
<path d="M0 0 C3.56677749 0.59047323 5.41533359 1.95735668 8.0625 4.375 C9.06990234 5.28378906 9.06990234 5.28378906 10.09765625 6.2109375 C11.76426508 7.77830268 13.39493678 9.3699358 15 11 C14.67 11.99 14.34 12.98 14 14 C3.416122 5.12418301 3.416122 5.12418301 0 0 Z " fill="#4C2961" transform="translate(219,115)"/>
<path d="M0 0 C0.66 0.99 1.32 1.98 2 3 C-1.82989106 4.80230168 -4.78121808 5.19622241 -9 5 C-9 5.66 -9 6.32 -9 7 C-9.66 7 -10.32 7 -11 7 C-11.33 6.01 -11.66 5.02 -12 4 C-10.45627868 2.45627868 -8.67572274 2.43278802 -6.5625 2 C-4.15670855 1.50571219 -2.19915754 1.09957877 0 0 Z " fill="#421E4D" transform="translate(216,201)"/>
<path d="M0 0 C0.99 0.33 1.98 0.66 3 1 C-2.42465753 7.78082192 -2.42465753 7.78082192 -6 10 C-6.66 10 -7.32 10 -8 10 C-8 9.34 -8 8.68 -8 8 C-7.34 8 -6.68 8 -6 8 C-5.7525 7.4225 -5.505 6.845 -5.25 6.25 C-3.83316683 3.6997003 -2.12372463 1.98214299 0 0 Z " fill="#431C53" transform="translate(229,224)"/>
<path d="M0 0 C0.66 0 1.32 0 2 0 C0.49653601 4.20969919 -2.14555814 5.91860139 -6 8 C-8.375 7.75 -8.375 7.75 -10 7 C-5.375 3 -5.375 3 -2 3 C-1.67 2.34 -1.34 1.68 -1 1 C-0.67 0.67 -0.34 0.34 0 0 Z " fill="#38154B" transform="translate(218,234)"/>
<path d="M0 0 C2.64 0 5.28 0 8 0 C7.34 1.32 6.68 2.64 6 4 C4.35 3.67 2.7 3.34 1 3 C0.67 4.65 0.34 6.3 0 8 C-0.33 8 -0.66 8 -1 8 C-1.125 2.25 -1.125 2.25 0 0 Z " fill="#401856" transform="translate(145,159)"/>
<path d="M0 0 C0.66 1.32 1.32 2.64 2 4 C1.04956626 5.33897583 0.08940853 6.67105427 -0.875 8 C-1.40867188 8.7425 -1.94234375 9.485 -2.4921875 10.25 C-2.98976562 10.8275 -3.48734375 11.405 -4 12 C-4.66 12 -5.32 12 -6 12 C-5.690625 11.236875 -5.38125 10.47375 -5.0625 9.6875 C-4.32106407 7.81210323 -3.63771783 5.91315348 -3 4 C-2.34 3.67 -1.68 3.34 -1 3 C-0.67 2.01 -0.34 1.02 0 0 Z " fill="#361444" transform="translate(237,213)"/>
<path d="M0 0 C0.33 0.99 0.66 1.98 1 3 C0.34 3 -0.32 3 -1 3 C-0.67 3.66 -0.34 4.32 0 5 C0.33 5.66 0.66 6.32 1 7 C0.34 7 -0.32 7 -1 7 C-1 7.66 -1 8.32 -1 9 C-1.99 9.33 -2.98 9.66 -4 10 C-4 7.36 -4 4.72 -4 2 C-2.68 1.34 -1.36 0.68 0 0 Z " fill="#4A1765" transform="translate(190,158)"/>
<path d="M0 0 C0.66 0.33 1.32 0.66 2 1 C-1.20156421 5.99067362 -3.31642687 8.75300597 -9 11 C-7.59155282 7.78475695 -5.89655214 5.67816132 -3.375 3.25 C-2.74335937 2.63640625 -2.11171875 2.0228125 -1.4609375 1.390625 C-0.73777344 0.70226562 -0.73777344 0.70226562 0 0 Z " fill="#623870" transform="translate(125,117)"/>
<path d="M0 0 C0.53625 0.226875 1.0725 0.45375 1.625 0.6875 C0.965 0.6875 0.305 0.6875 -0.375 0.6875 C-0.045 1.6775 0.285 2.6675 0.625 3.6875 C-0.365 4.1825 -0.365 4.1825 -1.375 4.6875 C-1.375 4.0275 -1.375 3.3675 -1.375 2.6875 C-2.035 2.6875 -2.695 2.6875 -3.375 2.6875 C-3.705 3.3475 -4.035 4.0075 -4.375 4.6875 C-5.365 5.1825 -5.365 5.1825 -6.375 5.6875 C-7.035 5.3575 -7.695 5.0275 -8.375 4.6875 C-8.375 4.0275 -8.375 3.3675 -8.375 2.6875 C-2.95961538 -0.38942308 -2.95961538 -0.38942308 0 0 Z " fill="#4E1E68" transform="translate(221.375,231.3125)"/>
<path d="M0 0 C1.9375 0.3125 1.9375 0.3125 4 1 C4.33 1.99 4.66 2.98 5 4 C4.01 4.33 3.02 4.66 2 5 C1.34 5.66 0.68 6.32 0 7 C-0.66 6.34 -1.32 5.68 -2 5 C-2.99 5.495 -2.99 5.495 -4 6 C-3.67 5.01 -3.34 4.02 -3 3 C-0.4375 1.8125 -0.4375 1.8125 2 1 C1.34 0.67 0.68 0.34 0 0 Z " fill="#571C7C" transform="translate(215,204)"/>
<path d="M0 0 C0 3.77910478 -0.99703962 4.46106101 -3.5 7.1875 C-4.1496875 7.90292969 -4.799375 8.61835938 -5.46875 9.35546875 C-5.9740625 9.89816406 -6.479375 10.44085938 -7 11 C-7.66 10.34 -8.32 9.68 -9 9 C-6.21000549 5.51250686 -3.74764169 2.49842779 0 0 Z " fill="#512D63" transform="translate(119,125)"/>
<path d="M0 0 C0.33 0.66 0.66 1.32 1 2 C2.65 2 4.3 2 6 2 C6 2.33 6 2.66 6 3 C5.030625 3.28875 4.06125 3.5775 3.0625 3.875 C-0.10664203 4.64214682 -0.10664203 4.64214682 -1 7 C-1.99 6.67 -2.98 6.34 -4 6 C-4 5.34 -4 4.68 -4 4 C-3.34 3.67 -2.68 3.34 -2 3 C-2.66 2.34 -3.32 1.68 -4 1 C-2.68 0.67 -1.36 0.34 0 0 Z " fill="#43185D" transform="translate(170,184)"/>
<path d="M0 0 C3.25524265 3.02272532 5.61820737 6.25718301 8 10 C6.25 9.875 6.25 9.875 4 9 C0 3.88888889 0 3.88888889 0 0 Z " fill="#48245A" transform="translate(113,216)"/>
<path d="M0 0 C0.66 0 1.32 0 2 0 C1.8125 2.3125 1.8125 2.3125 1 5 C-1.5625 6.8125 -1.5625 6.8125 -4 8 C-3.40312566 4.65750371 -2.26396123 2.53563658 0 0 Z " fill="#642D81" transform="translate(116,130)"/>
<path d="M0 0 C0.33 0 0.66 0 1 0 C1 3.3 1 6.6 1 10 C0.01 9.67 -0.98 9.34 -2 9 C-2.6875 6.9375 -2.6875 6.9375 -3 5 C-2.34 4.67 -1.68 4.34 -1 4 C-0.34786708 1.97536745 -0.34786708 1.97536745 0 0 Z " fill="#5C2889" transform="translate(248,166)"/>
<path d="M0 0 C0.598125 0.78375 1.19625 1.5675 1.8125 2.375 C3.91085249 5.14574323 3.91085249 5.14574323 7 7 C7 7.66 7 8.32 7 9 C3.34683329 7.75023244 2.21934164 7.32901247 0 4 C0 2.68 0 1.36 0 0 Z " fill="#301244" transform="translate(145,165)"/>
<path d="M0 0 C0.66 0.33 1.32 0.66 2 1 C0.02 2.32 -1.96 3.64 -4 5 C-4.99 4.34 -5.98 3.68 -7 3 C-4.69631264 1.93347808 -2.35981813 0.93578995 0 0 Z " fill="#361346" transform="translate(205,242)"/>
<path d="M0 0 C0.33 0.66 0.66 1.32 1 2 C-0.98 4.97 -0.98 4.97 -3 8 C-3.75 6.25 -3.75 6.25 -4 4 C-2.0625 1.75 -2.0625 1.75 0 0 Z " fill="#452254" transform="translate(242,208)"/>
<path d="M0 0 C0.66 1.32 1.32 2.64 2 4 C0.625 6 0.625 6 -1 8 C-1.66 8 -2.32 8 -3 8 C-2.690625 7.236875 -2.38125 6.47375 -2.0625 5.6875 C-1.32106407 3.81210323 -0.63771783 1.91315348 0 0 Z " fill="#461D53" transform="translate(221,194)"/>
<path d="M0 0 C0.66 0.33 1.32 0.66 2 1 C2.625 3.0625 2.625 3.0625 3 5 C1.35 5.33 -0.3 5.66 -2 6 C-1.125 1.125 -1.125 1.125 0 0 Z " fill="#481C5E" transform="translate(198,169)"/>
<path d="M0 0 C0.66 0 1.32 0 2 0 C2.33 2.31 2.66 4.62 3 7 C2.01 7 1.02 7 0 7 C0 4.69 0 2.38 0 0 Z " fill="#552968" transform="translate(221,143)"/>
<path d="" fill="#FFFFFF" transform="translate(0,0)"/>
<path d="" fill="#FFFFFF" transform="translate(0,0)"/>
<path d="" fill="#FFFFFF" transform="translate(0,0)"/>
<path d="" fill="#FFFFFF" transform="translate(0,0)"/>
<path d="" fill="#FFFFFF" transform="translate(0,0)"/>
<path d="" fill="#FFFFFF" transform="translate(0,0)"/>
<path d="" fill="#FFFFFF" transform="translate(0,0)"/>
<path d="" fill="#FFFFFF" transform="translate(0,0)"/>
<path d="" fill="#FFFFFF" transform="translate(0,0)"/>
<path d="" fill="#FFFFFF" transform="translate(0,0)"/>
<path d="" fill="#FFFFFF" transform="translate(0,0)"/>
<path d="" fill="#FFFFFF" transform="translate(0,0)"/>
<path d="" fill="#FFFFFF" transform="translate(0,0)"/>
<path d="" fill="#FFFFFF" transform="translate(0,0)"/>
<path d="" fill="#FFFFFF" transform="translate(0,0)"/>
<path d="" fill="#FFFFFF" transform="translate(0,0)"/>
<path d="" fill="#FFFFFF" transform="translate(0,0)"/>
<path d="" fill="#FFFFFF" transform="translate(0,0)"/>
<path d="" fill="#FFFFFF" transform="translate(0,0)"/>
<path d="" fill="#FFFFFF" transform="translate(0,0)"/>
<path d="" fill="#FFFFFF" transform="translate(0,0)"/>
<path d="" fill="#FFFFFF" transform="translate(0,0)"/>
<path d="" fill="#FFFFFF" transform="translate(0,0)"/>
<path d="" fill="#FFFFFF" transform="translate(0,0)"/>
<path d="" fill="#FFFFFF" transform="translate(0,0)"/>
<path d="" fill="#FFFFFF" transform="translate(0,0)"/>
<path d="" fill="#FFFFFF" transform="translate(0,0)"/>
<path d="" fill="#FFFFFF" transform="translate(0,0)"/>
<path d="" fill="#FFFFFF" transform="translate(0,0)"/>
<path d="" fill="#FFFFFF" transform="translate(0,0)"/>
<path d="" fill="#FFFFFF" transform="translate(0,0)"/>
<path d="" fill="#FFFFFF" transform="translate(0,0)"/>
<path d="" fill="#FFFFFF" transform="translate(0,0)"/>
<path d="" fill="#FFFFFF" transform="translate(0,0)"/>
<path d="" fill="#FFFFFF" transform="translate(0,0)"/>
<path d="" fill="#FFFFFF" transform="translate(0,0)"/>
<path d="" fill="#FFFFFF" transform="translate(0,0)"/>
<path d="" fill="#FFFFFF" transform="translate(0,0)"/>
<path d="" fill="#FFFFFF" transform="translate(0,0)"/>
<path d="" fill="#FFFFFF" transform="translate(0,0)"/>
<path d="" fill="#FFFFFF" transform="translate(0,0)"/>
<path d="" fill="#FFFFFF" transform="translate(0,0)"/>
<path d="" fill="#FFFFFF" transform="translate(0,0)"/>
<path d="" fill="#FFFFFF" transform="translate(0,0)"/>
<path d="" fill="#FFFFFF" transform="translate(0,0)"/>
<path d="" fill="#FFFFFF" transform="translate(0,0)"/>
<path d="" fill="#FFFFFF" transform="translate(0,0)"/>
<path d="" fill="#FFFFFF" transform="translate(0,0)"/>
<path d="" fill="#FFFFFF" transform="translate(0,0)"/>
<path d="" fill="#FFFFFF" transform="translate(0,0)"/>
<path d="" fill="#FFFFFF" transform="translate(0,0)"/>
<path d="" fill="#FFFFFF" transform="translate(0,0)"/>
<path d="" fill="#FFFFFF" transform="translate(0,0)"/>
<path d="" fill="#FFFFFF" transform="translate(0,0)"/>
<path d="" fill="#FFFFFF" transform="translate(0,0)"/>
<path d="" fill="#FFFFFF" transform="translate(0,0)"/>
<path d="" fill="#FFFFFF" transform="translate(0,0)"/>
<path d="" fill="#FFFFFF" transform="translate(0,0)"/>
<path d="" fill="#FFFFFF" transform="translate(0,0)"/>
<path d="" fill="#FFFFFF" transform="translate(0,0)"/>
<path d="" fill="#FFFFFF" transform="translate(0,0)"/>
</svg>
